#!OML:ASF F:\VICON\USERDATA\INSTALL\rory3\rory3.ASF
:FULLY-SPECIFIED
:DEGREES
61
root 0.07137065519793337 18.109217026482202 36.76848206276197 0.8424863635310591 6.231089017170758 -3.7031468896115243
lfemur -24.142816754402535 -3.0513277335172755 -20.96732131139397
ltibia 30.288212654492185
lfoot 5.836002990229561 -10.950515859903597
ltoes -14.640663099655528
rfemur 0.9321677493256537 0.5114710245575962 30.736311943307875
rtibia 75.81004405337316
rfoot 19.2243720446254 -11.36001067598049
rtoes 10.861903460441457
lowerback nan 2.151757459538935 3.813610787021668
upperback -1.0027216861833426 3.670619242490928 1.386259096122127
thorax -9.044732197513415 1.5361827199563043 -2.2267179602556766
lowerneck -20.22225449306058 -5.131748841436611 -1.936885625031136
upperneck 13.700021418777853 -7.202208910983497 2.893668771645592
head 7.688523091642922 -3.2172372086903622 0.46545491029663155
lclavicle 1.6186622687447954e-16 4.8996635827799196e-15
lhumerus -55.22243341546772 -14.60433029292732 99.0561016478496
lradius 107.92552101933528
lwrist 35.19444060856189
lhand -24.68851068879116 0.562240292080664
lfingers nan
lthumb 1.4161968451553504 30.52639239753474
rclavicle 1.4144592032059947e-15 4.822276997430114e-15
rhumerus -46.9441607653287 12.854125081554194 -98.02972305873315
rradius 111.13844177910217
rwrist -9.283181375675463
rhand -16.014816441708398 nan
rfingers nan
rthumb 8.992671268489039 10.667378500779481
62
root 0.006651509692894464 17.880351066610988 37.3267204200078 0.30689190448985926 7.001832992271553 -2.817560665497386
lfemur -22.791914900201473 -3.0273706379235077 -22.170452357435583
ltibia 32.77792149730317
lfoot 3.1401600856762646 -12.679863163941901
ltoes -8.900413228108999
rfemur -2.8639151421873983 -1.7031928756937877 28.442042393509663
rtibia 84.08072735800793
rfoot 18.191821406844163 -11.912487330432835
rtoes 17.143243905157224
lowerback nan 1.820398201464089 2.6053653204184037
upperback -0.7236178497500332 2.982902873005381 1.0736016660363106
thorax -9.218296053310041 1.2446573480695937 -1.542295197885832
lowerneck -20.286980129243315 -5.062630614213698 -1.9209714131178823
upperneck 13.598160817188939 -7.135053449914184 3.0323634660856422
head 7.685507866613641 -3.15727102917858 0.5310358918013712
lclavicle -3.573978935255918e-16 5.774167108829136e-15
lhumerus -53.074591196066045 -15.850200255992453 99.05735074533314
lradius 108.13045052805384
lwrist 35.20575143009298
lhand -24.82134179611529 0.6173128937519818
lfingers nan
lthumb 1.376235307631868 30.714726489541032
rclavicle -6.675400814571136e-16 4.609027086427415e-15
rhumerus -47.81661884225467 12.223211037890879 -98.70065176361376
rradius 110.07510459210503
rwrist -9.049708591247105
rhand -15.998261621110819 nan
rfingers nan
rthumb 9.046646597998464 10.500564607193635
63
root -0.04531602127901635 17.648871342043027 37.13705459905142 0.07379563303847014 7.289294210661075 -1.9268001978652585
lfemur -21.636058683463936 -2.9386914438014156 -23.37148732141061
ltibia 36.7011316631149
lfoot -1.8685115653474056 -13.17873997253379
ltoes -3.158575845190282
rfemur -7.641871268509679 -3.566237343693729 26.044420851749145
rtibia 91.6866558496401
rfoot 16.94154536347194 -11.737829641215058
rtoes 21.675944796960604
lowerback nan 1.597654442110826 1.3815104521625714
upperback -0.508834826206492 2.4215263058818928 0.7080000748113457
thorax -9.382739907628702 1.0284928215007407 -0.8268645225144461
lowerneck -20.556591505976428 -4.988308574649014 -1.889960611051948
upperneck 13.53557941513635 -7.062899887799694 3.1689330206830015
head 7.705001822477132 -3.095544614921135 0.5928167668149167
lclavicle -7.742226650756988e-16 5.197881007484142e-15
lhumerus -50.72190758887705 -17.040953763645504 98.94686250383451
lradius 108.14151041966353
lwrist 35.25447535954707
lhand -24.927306360741614 0.8571722433548978
lfingers nan
lthumb 1.3665736376181121 30.947885152371075
rclavicle -1.8332348119312876e-15 4.137716993853818e-15
rhumerus -48.76606296728521 11.506901771467968 -99.28650409989389
rradius 109.01791767968162
rwrist -8.900957062786311
rhand -15.950437242799484 nan
rfingers nan
rthumb 9.13477655746259 10.237729030561908
64
root -0.08224501976549572 17.458134277497486 37.71818106210573 0.14465149248440534 7.377530275796251 -0.8927940837167143
lfemur -20.039035421193393 -3.00172755288276 -24.677749928816105
ltibia 40.65801039885524
lfoot -7.578767297170116 -11.352125914126091
ltoes 0.16653123368328515
rfemur -12.847403142833517 -5.14544711871765 23.603158143188352
rtibia 98.17325606506088
rfoot 15.758993657253733 -10.63953714727555
rtoes 23.23643561115103
lowerback nan 1.3940913655797962 0.08849528547279273
upperback -0.3536299898396871 1.8858210337355417 0.27503898550223815
thorax -9.566042155384245 0.8428278812320675 -0.09609232595472761
lowerneck -20.980077331488364 -4.886106366866899 -1.8411422025985118
upperneck 13.446029024043114 -6.9507246590932255 3.283664424906477
head 7.723444421156999 -3.019227858317194 0.64706203612632
lclavicle -1.110776746999097e-15 3.918829170336042e-15
lhumerus -48.222929401573744 -18.047789209154047 98.74098483727684
lradius 108.04187233127497
lwrist 35.499895151031915
lhand -24.991564259842484 1.2430537049796124
lfingers nan
lthumb 1.4602307923272735 31.333589469199723
rclavicle -2.464783270946032e-15 3.0861927267445928e-15
rhumerus -49.812771440485726 10.727790315178844 -99.76713678926006
rradius 108.08081368048425
rwrist -8.850557456056077
rhand -15.9188125934803 nan
rfingers nan
rthumb 9.173471669288697 9.941495416740898
65
root -0.10543617580818423 17.28862641639263 37.82972345560505 0.3717657662836573 7.145615480505853 0.1336410855609027
lfemur -17.833994748649616 -3.134233143027602 -25.993354024669483
ltibia 43.54046572086209
lfoot -12.454422039789506 -7.413150417225759
ltoes 1.6056286931584776
rfemur -18.482621691565498 -6.456219608811786 21.33076361641551
rtibia 103.33774725781412
rfoot 14.732620074410793 -8.752106330095252
rtoes 22.792590653207508
lowerback nan 1.2211126150244191 -1.1470710693176478
upperback -0.2639395414242288 1.4299707690985592 -0.14179453343882442
thorax -9.729526126211569 0.6896383957246215 0.5258920267080548
lowerneck -21.42330829229406 -4.704560153784849 -1.778737632589691
upperneck 13.272932151309314 -6.7185788569969125 3.374519750868073
head 7.716718394892118 -2.8944558301705854 0.7015426689379427
lclavicle -1.0016982806273965e-15 2.254796549684788e-15
lhumerus -45.95761073265813 -18.70046351148581 98.49021653301854
lradius 108.08179792607797
lwrist 35.674262031691896
lhand -24.9819364951839 1.59838105015864
lfingers nan
lthumb 1.5555371342847353 31.567494931789227
rclavicle -1.9087009497222565e-15 1.483745838934054e-15
rhumerus -50.91810799054629 9.948214000777757 -100.09554993092819
rradius 107.38040127419642
rwrist -8.935094738044628
rhand -15.939829522032124 nan
rfingers nan
rthumb 9.237174822886548 9.757046102891875
66
root -0.08855055213268592 17.18743309973295 38.622605525919894 0.701937530468761 7.013328810291845 1.069933808675648
lfemur -14.886237632466177 -3.5099377815697435 -27.17108254807004
ltibia 44.864732581969015
lfoot -16.390814864492185 -3.0376726855912843
ltoes -0.44179222656360295
rfemur -24.192097431125514 -7.596305274484603 19.618956652293548
rtibia 106.88632585304671
rfoot 13.69201758365427 -6.571483651404969
rtoes 20.480522815633304
lowerback nan 0.9413639764587837 -2.137956369699573
upperback -0.2347426709961128 0.9142242662519453 -0.4646968150797819
thorax -9.863215421574813 0.4942959935904496 1.0536693922560447
lowerneck -21.75595532996222 -4.453930882690598 -1.7299582269392224
upperneck 13.05745578472992 -6.3664185827389375 3.428787528420617
head 7.683081218972511 -2.7187151631748825 0.7549077036105045
lclavicle -1.3103672952010946e-15 1.5569569487978286e-15
lhumerus -43.9706036521376 -18.921093144235847 98.26542460674258
lradius 108.39274552376342
lwrist 35.484261441347364
lhand -24.859981793709817 1.7973196923905952
lfingers nan
lthumb 1.7320903875190792 31.728360017083194
rclavicle -1.8412005633946893e-15 9.873954752903644e-16
rhumerus -52.09847931405961 9.21032250631913 -100.30839787923567
rradius 107.01642586058358
rwrist -9.078762172683252
rhand -15.961572898277186 nan
rfingers nan
rthumb 9.21866009724991 9.562534383839067
67
root -0.056365422071679605 17.1459617698826 39.330977678068805 1.077763150277168 6.820929949330694 1.6279738473728131
lfemur -11.692289972441683 -3.982310825989184 -27.904758739252742
ltibia 44.98862771728243
lfoot -19.461682364338092 0.18240575948016335
ltoes -2.974190448145534
rfemur -29.769489006808456 -8.334237705346885 18.837443738229357
rtibia 108.63106072730315
rfoot 12.496133369643886 -4.638113572733571
rtoes 16.885406936553284
lowerback nan 0.5800314912764507 -2.758494354204597
upperback -0.2638426022011464 0.3737744021634226 -0.5819454002294826
thorax -9.922586562690496 0.27973381012073734 1.551303172384598
lowerneck -21.993940407399165 -4.177043743070028 -1.7085043689472752
upperneck 12.923202294412084 -5.956252654667809 3.450496379888447
head 7.6620809635972025 -2.519874502635444 0.8009758124266102
lclavicle -1.1137467186077358e-15 1.7842221800958987e-15
lhumerus -42.48553775951039 -18.856168065147305 98.08857087071
lradius 109.07009360777519
lwrist 35.05721302077669
lhand -24.76603915157549 1.755148574530292
lfingers nan
lthumb 1.7856206051203793 31.604362043699894
rclavicle -1.804448630003233e-15 1.095394184440109e-15
rhumerus -53.277560107370114 8.580154689225763 -100.4195960839795
rradius 107.00490051832705
rwrist -9.295488660396778
rhand -15.98958946119395 nan
rfingers nan
rthumb 9.267483478015375 9.431635717453307
68
root -0.0010663986208594156 17.16098953774797 40.08532628034094 1.5144160762508192 6.690907834620449 1.8374088266870463
lfemur -8.509478659829044 -4.464526958505241 -28.281361564579967
ltibia 44.442563266547666
lfoot -21.292189751997036 1.9506792774956336
ltoes -3.472223277354683
rfemur -34.88609762090864 -8.673475636340418 18.860956246450865
rtibia 108.4535398474273
rfoot 10.92907665472876 -3.248977996014104
rtoes 11.953520354359755
lowerback nan 0.11003090191841636 -3.0309861152248647
upperback -0.3224225721128058 -0.25234478463200016 -0.49615963946070396
thorax -9.881253019696734 0.023386975702447965 2.0705993532027134
lowerneck -22.074217032243233 -3.873255482957358 -1.695836235510309
upperneck 12.921906038623566 -5.492168527711289 3.420218235640498
head 7.6689381644830785 -2.3004019923964045 0.828331309380954
lclavicle -6.779707939298393e-16 3.2477681681651386e-15
lhumerus -41.33455413641069 -18.688364704696625 97.93365261197403
lradius 109.9950047214903
lwrist 34.639449265891706
lhand -24.706865495776846 2.0751838406374263
lfingers nan
lthumb 1.837842794230821 31.824347720352375
rclavicle -2.3843879812114573e-15 2.6866300694952048e-15
rhumerus -54.45046918683394 8.0498879047627 -100.43209212680584
rradius 107.31206754173401
rwrist -9.627205779146799
rhand -15.988029200902107 nan
rfingers nan
rthumb 9.379868217037878 9.398894206246938
